# xmcd
#
# Track frame offsets:
#	150
#	15482
#	37682
#	62507
#	81782
#	104020
#	129220
#
# Disc length: 1929 seconds
#
# Revision: 1
# Processed by: cddbd v1.5.2PL0 Copyright (c) Steve Scherf et al.
# Submitted via: audiograbber 1.83.01
#
DISCID=47078707
DTITLE=Wressnig, Raphael - Chicken Burrito
DYEAR=2018
DGENRE=Blues
TTITLE0=Chunky thighs
TTITLE1=Nasty
TTITLE2=Born to roam
TTITLE3=Tiny dog blues
TTITLE4=Chicken Burrito
TTITLE5=Get down with it
TTITLE6=One mo' time
EXTD=
EXTT0=
EXTT1=
EXTT2=
EXTT3=
EXTT4=
EXTT5=
EXTT6=
PLAYORDER=
